<?xml version="1.0" encoding="UTF-8"?>
<svg xmlns="http://www.w3.org/2000/svg" xmlns:xlink="http://www.w3.org/1999/xlink" viewBox="0 0 32 32" width="32px" height="32px">
<g id="surface92151948">
<path style=" stroke:none;fill-rule:nonzero;fill:rgb(90.588236%,29.803923%,23.529412%);fill-opacity:1;" d="M 25.300781 8.800781 C 25.101562 8.300781 24.699219 7.699219 24.300781 7.101562 C 23.800781 6.398438 23.199219 5.800781 22.5 5.300781 C 20.800781 3.898438 18.898438 3.199219 16.800781 3.101562 C 15.199219 3 13.898438 3.199219 12.800781 3.398438 C 12 3.601562 11.300781 3.800781 10.601562 4.199219 C 10.199219 4.5 9.800781 4.800781 9.300781 5.398438 C 8.800781 5.898438 8.398438 6.398438 8.101562 6.5 C 7.199219 7.101562 6.601562 7.898438 6.398438 8.898438 C 6 10.5 6.101562 12.601562 6.699219 15.101562 C 6.800781 15.398438 7 15.800781 7.300781 16.199219 C 7.699219 16.699219 7.898438 17 8.101562 17.199219 C 8 17.199219 8 17.300781 7.800781 17.300781 L 7.5 17.398438 C 7.199219 17.5 7.101562 17.699219 7.101562 18 L 7.199219 18.398438 L 7.300781 18.699219 L 7.101562 18.800781 L 7.101562 19 C 7.199219 19.5 7.300781 19.800781 7.601562 20.101562 C 7.699219 20.398438 7.898438 20.601562 8 20.601562 L 8.398438 20.601562 C 8.5 20.5 8.699219 20.398438 8.699219 20.398438 C 8.898438 20.199219 9.101562 20.199219 9.300781 20.300781 L 9.601562 20.398438 L 10 20.699219 C 10.199219 20.699219 10.300781 20.601562 10.5 20.5 C 10.601562 20.398438 10.699219 20.300781 10.699219 20.300781 L 10.398438 20.199219 L 10.101562 20.199219 C 9.800781 20.199219 9.699219 20.101562 9.699219 20 L 10.300781 19.5 L 10.898438 19 C 11.300781 18.800781 11.800781 18.601562 12.300781 18.601562 C 12.601562 18.699219 12.699219 18.800781 12.699219 19 C 12.5 19.101562 12.398438 19.300781 12.5 19.601562 L 12.601562 20 C 12.699219 20.101562 12.699219 20.199219 12.699219 20.300781 C 12.398438 20.199219 12.398438 20.398438 12.5 21 C 12.601562 21.300781 12.699219 21.699219 12.898438 22.101562 C 12.898438 23.199219 13 25.300781 13.199219 28.101562 L 13.398438 28.300781 L 13.699219 28.5 C 14 28.699219 14.199219 28.699219 14.300781 28.5 C 14.398438 28.300781 14.398438 27.101562 14.398438 24.898438 C 14.398438 22.699219 14.300781 21.601562 14.300781 21.398438 L 14.101562 21.199219 C 14.300781 21.101562 14.5 21.101562 14.699219 20.898438 C 14.601562 21.898438 14.800781 24.601562 15 28.800781 C 15 28.898438 15.101562 28.898438 15.398438 28.898438 C 15.699219 28.898438 15.800781 28.898438 15.800781 29 C 16 28.898438 16.101562 27.699219 16.199219 25.398438 L 16.199219 22.699219 C 16.199219 21.898438 16.199219 21.300781 16.101562 21 L 16.5 21 C 16.398438 22.300781 16.398438 23.898438 16.398438 25.800781 C 16.300781 27.898438 16.398438 29 16.5 28.898438 L 17 28.898438 C 17.300781 29 17.398438 27.898438 17.5 25.601562 C 17.601562 24.699219 17.601562 23.800781 17.601562 22.800781 C 17.601562 21.898438 17.601562 21.199219 17.5 20.699219 L 18 20.601562 C 18.398438 20.800781 18.601562 21 18.601562 21 L 18.601562 21.101562 L 18.199219 21.199219 L 18 21.300781 C 18 21.398438 18 21.800781 17.898438 22.601562 L 17.800781 25.300781 C 17.699219 27.800781 17.800781 29 17.898438 28.898438 L 19 28.699219 C 19.101562 28.601562 19.199219 27.800781 19.300781 26 C 19.398438 24.5 19.398438 23.199219 19.398438 22.101562 C 19.699219 21.800781 19.898438 21.300781 20.101562 20.5 L 20.199219 19.699219 C 20.199219 19.5 20.199219 19.300781 20.101562 19.300781 L 20 19.199219 L 20.101562 19 L 20.699219 18.800781 L 21.300781 18.601562 C 21.800781 18.5 22.199219 18.699219 22.5 19 C 22.601562 19.199219 22.699219 19.398438 22.601562 19.699219 L 22.5 19.898438 C 22.5 20 22.5 20 22.398438 20 C 22.300781 20.300781 22.398438 20.5 22.699219 20.5 C 23 20.601562 23.199219 20.601562 23.5 20.398438 C 23.601562 20.199219 23.898438 20 24.300781 19.800781 C 24.601562 19.601562 24.800781 19.300781 24.898438 19.101562 L 25 18.398438 C 25 18.101562 24.898438 18 24.699219 17.898438 C 24.601562 17.898438 24.601562 17.800781 24.601562 17.800781 L 24.601562 17.601562 C 24.699219 17.398438 24.800781 17.199219 24.699219 17 L 25.101562 15.101562 C 25.398438 14.199219 25.5 13.5 25.601562 12.898438 C 26 11.101562 25.898438 9.699219 25.300781 8.800781 Z M 13.601562 16.300781 L 13 16.300781 C 12.898438 16.398438 12.699219 16.398438 12.199219 16.300781 L 10.898438 16.101562 C 9.601562 15.898438 8.898438 15.699219 8.898438 15.601562 C 8.601562 15.5 8.398438 15.300781 8.199219 15 C 8 14.699219 7.898438 14.5 8 14.300781 C 7.699219 13.898438 7.601562 13.5 7.601562 12.800781 L 7.699219 12.101562 C 7.800781 11.898438 7.800781 11.898438 7.800781 11.898438 C 7.699219 11.699219 7.898438 11.800781 8.398438 12 C 9 12.199219 9.5 12.5 10 12.800781 C 10.300781 12.898438 11.199219 13.398438 12.5 14.300781 C 12.800781 14.5 13.300781 14.699219 13.800781 14.898438 L 15.199219 15.5 C 15.300781 15.601562 15.300781 15.601562 15.101562 15.699219 C 15 15.800781 14.699219 15.898438 14.398438 16 Z M 15.898438 17.800781 L 15.300781 18.699219 L 15.199219 19.300781 L 15.101562 19.398438 L 14.800781 19.199219 L 14.601562 18.800781 L 14.398438 18.398438 L 14.398438 18.101562 L 14.5 17.898438 L 14.699219 17.699219 L 14.800781 17.398438 L 15.101562 16.699219 L 15.101562 16.601562 L 15.199219 16.5 L 15.300781 16.398438 L 15.5 16.300781 L 15.601562 16.101562 L 15.699219 16 L 15.699219 17.800781 Z M 17.5 18.398438 L 17.300781 18.800781 L 17.101562 19.199219 L 16.898438 19.398438 L 16.800781 19.5 L 16.699219 18.601562 L 16.101562 17.699219 L 16.101562 16.300781 L 16.199219 16 L 16.300781 16.199219 L 16.5 16.300781 L 16.601562 16.398438 L 16.699219 16.5 L 16.699219 16.601562 L 17 17.398438 L 17.199219 17.601562 L 17.398438 17.800781 L 17.5 18 C 17.601562 18.101562 17.601562 18.300781 17.5 18.398438 Z M 24.601562 12.800781 C 24.5 13.398438 24.398438 13.898438 24.199219 14.300781 C 24.101562 14.699219 24 15 23.800781 15.101562 C 23.699219 15.300781 23.5 15.5 23.300781 15.601562 C 23.199219 15.800781 22.5 16 21.300781 16.101562 L 19.898438 16.300781 C 19.5 16.398438 19.199219 16.398438 19.101562 16.300781 C 19 16.398438 18.800781 16.300781 18.5 16.199219 L 17.601562 16 C 16.800781 15.800781 16.5 15.601562 16.800781 15.5 L 18.300781 15 C 18.898438 14.800781 19.300781 14.5 19.601562 14.300781 L 20.898438 13.5 C 21.5 13.101562 21.898438 12.898438 22.101562 12.800781 C 22.5 12.601562 23.101562 12.398438 23.800781 12.199219 C 23.800781 12 24 11.898438 24.199219 11.898438 C 24.300781 11.800781 24.398438 11.898438 24.398438 12 C 24.5 12 24.5 12.101562 24.5 12.199219 L 24.5 12.800781 Z M 24.601562 12.800781 "/>
</g>
</svg>
